<svg style="display: none;" xmlns="http://www.w3.org/2000/svg">
    <symbol id="menu" viewBox="0 0 51 51">
        <g>
            <path d="M2,13.5h49c1.104,0,2-0.896,2-2s-0.896-2-2-2H2c-1.104,0-2,0.896-2,2S0.896,13.5,2,13.5z"></path>
            <path d="M2,28.5h49c1.104,0,2-0.896,2-2s-0.896-2-2-2H2c-1.104,0-2,0.896-2,2S0.896,28.5,2,28.5z"></path>
            <path d="M2,43.5h49c1.104,0,2-0.896,2-2s-0.896-2-2-2H2c-1.104,0-2,0.896-2,2S0.896,43.5,2,43.5z"></path>
        </g>
    </symbol>

    <symbol id="folder" viewBox="0 0 24 24" fill="none" stroke="currentColor" stroke-width="2" stroke-linecap="round" stroke-linejoin="round" class="feather feather-folder">
        <path d="M22 19a2 2 0 0 1-2 2H4a2 2 0 0 1-2-2V5a2 2 0 0 1 2-2h5l2 3h9a2 2 0 0 1 2 2z"></path>
    </symbol>

    <symbol id="rating" viewBox="0 0 24 24" fill="none" stroke="currentColor" stroke-width="2" stroke-linecap="round" stroke-linejoin="round" class="feather feather-bar-chart-2">
        <line x1="18" y1="20" x2="18" y2="10"></line>
        <line x1="12" y1="20" x2="12" y2="4"></line>
        <line x1="6" y1="20" x2="6" y2="14"></line>
    </symbol>
</svg>
